<svg xmlns="http://www.w3.org/2000/svg" xmlns:xlink="http://www.w3.org/1999/xlink" width="500" zoomAndPan="magnify" viewBox="0 0 375 374.999991" height="500" preserveAspectRatio="xMidYMid meet" version="1.0"><defs><g/></defs><rect x="-37.5" width="450" fill="#ffffff" y="-37.499999" height="449.999989" fill-opacity="1"/><rect x="-37.5" width="450" fill="#2d282c" y="-37.499999" height="449.999989" fill-opacity="1"/><g fill="#ffffff" fill-opacity="1"><g transform="translate(96.064203, 202.927676)"><g><path d="M 4.503906 0 L 14.488281 -46.855469 L 23.625 -46.855469 L 13.640625 0 Z M 4.503906 0 "/></g></g></g><g fill="#ffffff" fill-opacity="1"><g transform="translate(111.00578, 202.927676)"><g><path d="M 38.699219 -22.839844 C 38.699219 -20.359375 38.328125 -17.707031 37.589844 -14.878906 L 13.769531 -14.878906 C 13.640625 -14.226562 13.574219 -13.464844 13.574219 -12.59375 C 13.574219 -8.460938 15.769531 -6.394531 20.164062 -6.394531 C 21.511719 -6.394531 22.808594 -6.722656 24.046875 -7.375 C 25.289062 -8.027344 26.210938 -8.960938 26.820312 -10.179688 L 36.21875 -10.179688 C 34.519531 -6.742188 32.105469 -4.035156 28.972656 -2.054688 C 25.84375 -0.0742188 22.382812 0.914062 18.597656 0.914062 C 13.988281 0.914062 10.496094 -0.128906 8.125 -2.21875 C 5.753906 -4.308594 4.566406 -7.417969 4.566406 -11.550781 C 4.566406 -15.859375 5.40625 -19.847656 7.082031 -23.523438 C 8.753906 -27.203125 11.191406 -30.136719 14.390625 -32.335938 C 17.585938 -34.53125 21.359375 -35.628906 25.710938 -35.628906 C 29.886719 -35.628906 33.097656 -34.53125 35.335938 -32.335938 C 37.578125 -30.136719 38.699219 -26.972656 38.699219 -22.839844 Z M 29.625 -22.253906 C 29.625 -23.992188 29.125 -25.40625 28.125 -26.496094 C 27.125 -27.582031 25.734375 -28.125 23.949219 -28.125 C 19.773438 -28.125 16.902344 -25.691406 15.335938 -20.816406 L 29.496094 -20.816406 C 29.582031 -21.253906 29.625 -21.730469 29.625 -22.253906 Z M 29.625 -22.253906 "/></g></g></g><g fill="#ffffff" fill-opacity="1"><g transform="translate(144.086836, 202.927676)"><g><path d="M 37.785156 -25.515625 L 33.804688 -6.722656 C 33.542969 -5.675781 33.410156 -4.71875 33.410156 -3.851562 C 33.410156 -3.066406 33.507812 -2.492188 33.707031 -2.121094 C 33.902344 -1.75 34.214844 -1.5 34.652344 -1.371094 L 34.390625 0 L 24.535156 0 C 24.449219 -1.042969 24.40625 -1.675781 24.40625 -1.890625 C 24.40625 -2.242188 24.449219 -2.980469 24.535156 -4.109375 C 22.40625 -2.371094 20.449219 -1.097656 18.664062 -0.292969 C 16.878906 0.511719 14.75 0.914062 12.269531 0.914062 C 9.570312 0.914062 7.4375 0.238281 5.875 -1.109375 C 4.308594 -2.457031 3.523438 -4.261719 3.523438 -6.527344 C 3.523438 -10.355469 4.742188 -13.488281 7.179688 -15.921875 C 9.570312 -18.316406 12.769531 -19.792969 16.769531 -20.359375 L 21.40625 -21.011719 C 23.578125 -21.316406 25.089844 -21.566406 25.941406 -21.761719 C 26.789062 -21.960938 27.460938 -22.328125 27.960938 -22.871094 C 28.464844 -23.417969 28.714844 -24.253906 28.714844 -25.386719 C 28.714844 -26.34375 28.3125 -27.070312 27.507812 -27.570312 C 26.703125 -28.070312 25.363281 -28.320312 23.492188 -28.320312 C 21.796875 -28.320312 20.414062 -27.953125 19.347656 -27.210938 C 18.28125 -26.472656 17.445312 -25.234375 16.835938 -23.492188 L 8.027344 -23.492188 C 9.375 -27.667969 11.429688 -30.734375 14.195312 -32.695312 C 16.957031 -34.652344 20.902344 -35.628906 26.039062 -35.628906 C 29.5625 -35.628906 32.433594 -34.976562 34.652344 -33.671875 C 36.871094 -32.367188 37.980469 -30.433594 37.980469 -27.863281 C 37.980469 -26.90625 37.914062 -26.125 37.785156 -25.515625 Z M 20.882812 -15.074219 C 17.792969 -14.640625 15.707031 -13.890625 14.617188 -12.824219 C 13.53125 -11.757812 12.984375 -10.441406 12.984375 -8.875 C 12.984375 -7.570312 13.335938 -6.699219 14.03125 -6.265625 C 14.726562 -5.828125 15.660156 -5.613281 16.835938 -5.613281 C 18.011719 -5.613281 19.261719 -5.894531 20.589844 -6.460938 C 21.914062 -7.027344 23.089844 -7.839844 24.113281 -8.90625 C 25.136719 -9.972656 25.796875 -11.179688 26.101562 -12.53125 L 27.015625 -16.902344 C 26.449219 -16.554688 25.59375 -16.207031 24.4375 -15.859375 C 23.285156 -15.507812 22.101562 -15.25 20.882812 -15.074219 Z M 20.882812 -15.074219 "/></g></g></g><g fill="#ffffff" fill-opacity="1"><g transform="translate(177.167892, 202.927676)"><g><path d="M 27.015625 0 L 27.929688 -4.371094 L 27.800781 -4.371094 C 26.363281 -2.5 24.679688 -1.152344 22.742188 -0.328125 C 20.804688 0.5 18.773438 0.914062 16.640625 0.914062 C 13.074219 0.914062 10.300781 -0.175781 8.320312 -2.347656 C 6.339844 -4.523438 5.351562 -7.722656 5.351562 -11.941406 C 5.351562 -16.464844 6.230469 -20.535156 7.992188 -24.144531 C 9.757812 -27.757812 12.082031 -30.574219 14.976562 -32.597656 C 17.871094 -34.617188 20.96875 -35.628906 24.277344 -35.628906 C 26.496094 -35.628906 28.355469 -35.171875 29.855469 -34.261719 C 31.355469 -33.347656 32.433594 -31.996094 33.085938 -30.214844 L 33.214844 -30.214844 L 36.804688 -46.855469 L 45.941406 -46.855469 L 35.957031 0 Z M 20.492188 -6.589844 C 22.578125 -6.589844 24.4375 -7.234375 26.070312 -8.515625 C 27.703125 -9.800781 28.972656 -11.539062 29.886719 -13.738281 C 30.800781 -15.933594 31.257812 -18.335938 31.257812 -20.949219 C 31.257812 -23.167969 30.757812 -24.851562 29.757812 -26.003906 C 28.757812 -27.15625 27.257812 -27.734375 25.253906 -27.734375 C 23.167969 -27.734375 21.339844 -27.027344 19.773438 -25.613281 C 18.207031 -24.199219 17 -22.394531 16.152344 -20.195312 C 15.304688 -18 14.878906 -15.769531 14.878906 -13.507812 C 14.878906 -11.246094 15.367188 -9.527344 16.347656 -8.351562 C 17.324219 -7.179688 18.707031 -6.589844 20.492188 -6.589844 Z M 20.492188 -6.589844 "/></g></g></g><g fill="#ffffff" fill-opacity="1"><g transform="translate(213.837689, 202.927676)"><g><path d="M 4.503906 0 L 14.488281 -46.855469 L 23.625 -46.855469 L 13.640625 0 Z M 4.503906 0 "/></g></g></g><g fill="#ffffff" fill-opacity="1"><g transform="translate(227.800408, 202.927676)"><g><path d="M 20.359375 -9.136719 L 32.890625 -34.71875 L 42.546875 -34.71875 L 24.277344 -2.152344 C 21.925781 1.980469 20.207031 4.9375 19.121094 6.722656 C 17.945312 8.636719 16.890625 10.082031 15.957031 11.0625 C 15.019531 12.039062 13.890625 12.769531 12.5625 13.246094 C 11.234375 13.726562 9.484375 13.964844 7.308594 13.964844 C 5.960938 13.964844 4.925781 13.941406 4.210938 13.898438 C 3.492188 13.855469 3 13.835938 2.742188 13.835938 L 4.308594 6.527344 C 4.742188 6.613281 5.65625 6.65625 7.046875 6.65625 C 8.265625 6.65625 9.246094 6.40625 9.984375 5.90625 C 10.722656 5.40625 11.269531 4.871094 11.617188 4.308594 C 11.964844 3.742188 12.464844 2.785156 13.117188 1.4375 L 8.027344 -34.71875 L 18.207031 -34.71875 L 20.230469 -9.136719 Z M 20.359375 -9.136719 "/></g></g></g></svg>